<svg xmlns="http://www.w3.org/2000/svg" viewBox="0 0 71.71 62.83"><defs><style>.cls-1{fill:#3b3b3c;}</style></defs><title>Asset 2</title><g id="Layer_2" data-name="Layer 2"><g id="Layer_1-2" data-name="Layer 1"><path class="cls-1" d="M71.17,58.79,57,34.26c-1.29-2.21-3.38-5.85-4.66-8.07L38.19,1.67c-1.29-2.23-3.38-2.23-4.66,0L19.37,26.19c-1.29,2.22-3.38,5.86-4.66,8.07L.54,58.79c-1.27,2.22-.23,4,2.34,4h66C71.4,62.83,72.45,61,71.17,58.79Zm-31.6-3.31a4.9,4.9,0,0,1-6.9,0A4.7,4.7,0,0,1,31.25,52a4.77,4.77,0,0,1,1.42-3.46,4.83,4.83,0,0,1,6.9,0A4.74,4.74,0,0,1,41,52,4.68,4.68,0,0,1,39.57,55.48Zm0-27.56L38,34.51a56.3,56.3,0,0,0-1.24,8.3H35.44a50.82,50.82,0,0,0-1.39-8.3l-1.56-6.59a41.46,41.46,0,0,1-1.42-8.44,5.13,5.13,0,0,1,1.38-3.75,4.82,4.82,0,0,1,3.61-1.42,4.88,4.88,0,0,1,3.6,1.43,4.94,4.94,0,0,1,1.42,3.63A45.45,45.45,0,0,1,39.59,27.92Z"/></g></g></svg>