<svg id="Layer_1" data-name="Layer 1" xmlns="http://www.w3.org/2000/svg" viewBox="0 0 1000 1000"><defs><style>.cls-1{fill:#5a6ca0;}.cls-1,.cls-2{stroke:#000;stroke-miterlimit:10;}.cls-2{fill:#fff;}</style></defs><title>Artboard 1</title><circle class="cls-1" cx="502.06" cy="499" r="469.91"/><path class="cls-2" d="M212.05,168.57c-48.89,52,59.88,145.7,49.16,331.57C251.07,675.64,141.47,764.66,186,818.64c30.44,36.94,115.69,37,162.53,0,75.92-59.94,31.89-202.14,97.31-226.92,25.17-9.54,51.59,3.88,57.19,6.88,53.49,28.7,37,97.5,77.25,148.7C641,824.49,799.38,821.7,817,782.47c14.14-31.47-58.45-95-124.4-152.72C578.17,529.6,526,526.7,519,485.07,502.19,384.88,820.37,296.57,805,218.81c-10.36-52.34-167.5-93.54-230.74-38.18-37.16,32.52-36.83,94-106.35,196.93-3.64,5.4-18.93,27.81-25.08,25.12-12.13-5.32,46.67-98.18,20.07-163.78C429.6,156.89,262.13,115.28,212.05,168.57Z"/></svg>