<svg xmlns="http://www.w3.org/2000/svg" viewBox="0 0 57.02 83.59"><defs><style>.cls-1{fill:#3b3b3c;}</style></defs><title>Asset 5</title><g id="Layer_2" data-name="Layer 2"><g id="Layer_1-2" data-name="Layer 1"><path class="cls-1" d="M0,75.35a8.24,8.24,0,0,0,8.24,8.24H48.78A8.24,8.24,0,0,0,57,75.35V19.71H0ZM45.29,28.86a2.35,2.35,0,1,1,4.69,0V73.3a2.35,2.35,0,1,1-4.69,0Zm-18.88,0a2.35,2.35,0,1,1,4.69,0V73.3a2.35,2.35,0,1,1-4.69,0Zm-18.88,0a2.44,2.44,0,0,1,2.35-2.52,2.44,2.44,0,0,1,2.34,2.52V73.3a2.44,2.44,0,0,1-2.34,2.52A2.44,2.44,0,0,1,7.53,73.3Z"/><path class="cls-1" d="M48.78,5.49H38.44A5.74,5.74,0,0,0,32.71,0H24.57a5.74,5.74,0,0,0-5.73,5.49H8.24A8.24,8.24,0,0,0,0,13.73v1.63H57V13.73A8.24,8.24,0,0,0,48.78,5.49Z"/></g></g></svg>