<?xml version="1.0" encoding="utf-8"?>
<!-- Generator: Adobe Illustrator 24.0.0, SVG Export Plug-In . SVG Version: 6.00 Build 0)  -->
<svg version="1.1" id="Layer_1" xmlns="http://www.w3.org/2000/svg" xmlns:xlink="http://www.w3.org/1999/xlink" x="0px" y="0px"
	 viewBox="0 0 800 800" style="enable-background:new 0 0 800 800;" xml:space="preserve">
<style type="text/css">
	.st0{fill:#BA987E;stroke:#1C0F06;stroke-miterlimit:10;}
</style>
<path class="st0" d="M176,0C79.3,0,0,79.3,0,176v448c0,18,5.9,34.6,16,48v48c0,26.3,21.7,48,48,48h64c26.3,0,48-21.7,48-48v-16h176
	v-32H80c-26.5,0-48-21.5-48-48V176C32,96.8,96.8,32,176,32h256c79.3,0,144,64.8,144,144v224h32V176C608,79.3,528.8,0,432,0H176z
	 M192,48c-8.4,0-16.9,2.9-23,9s-9,14.6-9,23v32c0,8.4,2.9,16.9,9,23s14.6,9,23,9h240c8.4,0,16.9-2.9,23-9s9-14.6,9-23V80
	c0-8.4-2.9-16.9-9-23s-14.6-9-23-9H192z M192,80h240v32H192V80z M112,160c-27.2,0-48,20.8-48,48v208c0,27.2,20.8,48,48,48h286.5
	l17.5-32H112c-9.6,0-16-6.4-16-16V208c0-9.6,6.4-16,16-16h384c9.6,0,16,6.4,16,16v192h32V208c0-27.2-20.8-48-48-48H112z M505.5,432
	c-31.6,0-59.9,18.3-73.5,47.5v0.5l-42,92.5v1c-4.1,10.4-6,21.4-6,31.5v163c0,8.4,2.9,16.9,9,23s14.6,9,23,9h48c8.4,0,16.9-2.9,23-9
	s9-14.6,9-23v-16h192v16c0,8.4,2.9,16.9,9,23s14.6,9,23,9h48c8.4,0,16.9-2.9,23-9s9-14.6,9-23V605c0-11.4-2.1-21.8-6-31.5v-1
	L752,480v-0.5c-13.6-29.2-41.9-47.5-73.5-47.5H505.5z M505.5,464h173c19.6,0,35.8,10.2,44.5,29l13,29v22c0,8.9-7.1,16-16,16H464
	c-8.9,0-16-7.1-16-16v-22l13-29C469.8,474.2,485.9,464,505.5,464z M136,496c-39.6,0-72,32.4-72,72s32.4,72,72,72s72-32.4,72-72
	S175.6,496,136,496z M136,528c22.3,0,40,17.8,40,40s-17.8,40-40,40s-40-17.8-40-40S113.8,528,136,528z M425,572.5
	c8.8,11.9,23.2,19.5,39,19.5h256c15.8,0,30.3-7.6,39-19.5l5.5,12.5c0.1,0.1-0.1,0.4,0,0.5c2.4,6.1,3.5,11.9,3.5,19.5v115H416V605
	c0-5.8,1.4-13.9,3.5-19.5c0.1-0.1-0.1-0.4,0-0.5L425,572.5z M480,624c-17.7,0-32,14.3-32,32s14.3,32,32,32s32-14.3,32-32
	S497.7,624,480,624z M704,624c-17.7,0-32,14.3-32,32s14.3,32,32,32s32-14.3,32-32S721.7,624,704,624z M48,697c9.8,4.4,20.6,7,32,7
	h64v16c0,8.9-7.1,16-16,16H64c-8.9,0-16-7.1-16-16V697z M416,752h48v16h-48V752z M720,752h48v16h-48V752z"/>
</svg>
