<svg xmlns="http://www.w3.org/2000/svg" viewBox="0 0 74.89 70.8"><defs><style>.cls-1{fill:#3b3b3c;}</style></defs><title>Asset 3</title><g id="Layer_2" data-name="Layer 2"><g id="Layer_1-2" data-name="Layer 1"><path class="cls-1" d="M37.71,54.62l10.37-18,10.37-18H48.25V1.36A1.36,1.36,0,0,0,46.89,0H28.52a1.36,1.36,0,0,0-1.35,1.36V18.69H17l10.37,18Z"/><path class="cls-1" d="M69.22,38.56H66V59.14H9.67V38.56h-4A5.67,5.67,0,0,0,0,44.23v20.9A5.67,5.67,0,0,0,5.67,70.8H69.22a5.67,5.67,0,0,0,5.67-5.67V44.23A5.67,5.67,0,0,0,69.22,38.56Z"/></g></g></svg>